<svg  viewBox="0 0 16 16" fill="currentColor" xmlns="http://www.w3.org/2000/svg">
<path fill-rule="evenodd" clip-rule="evenodd" d="M3.04624 1.40112C2.87669 1.40111 2.71533 1.40109 2.57935 1.4122C2.43108 1.42432 2.26101 1.45257 2.09103 1.53918C1.85269 1.66062 1.65891 1.8544 1.53747 2.09273C1.45086 2.26272 1.42261 2.43279 1.41049 2.58106C1.39938 2.71704 1.3994 2.8784 1.39942 3.04795V10.2876C1.3994 10.4571 1.39938 10.6185 1.41049 10.7545C1.42261 10.9028 1.45086 11.0728 1.53747 11.2428C1.65891 11.4811 1.85269 11.6749 2.09103 11.7964C2.26101 11.883 2.43108 11.9112 2.57935 11.9233C2.71533 11.9345 2.87669 11.9344 3.04624 11.9344H10.2859C10.4554 11.9344 10.6168 11.9345 10.7528 11.9233C10.901 11.9112 11.0711 11.883 11.2411 11.7964C11.4794 11.6749 11.6732 11.4811 11.7946 11.2428C11.8813 11.0728 11.9095 10.9028 11.9216 10.7545C11.9327 10.6185 11.9327 10.4571 11.9327 10.2876V3.04794C11.9327 2.8784 11.9327 2.71704 11.9216 2.58106C11.9095 2.43279 11.8813 2.26272 11.7946 2.09273C11.6732 1.8544 11.4794 1.66062 11.2411 1.53918C11.0711 1.45257 10.901 1.42432 10.7528 1.4122C10.6168 1.40109 10.4554 1.40111 10.2859 1.40112H3.04624ZM2.5994 2.66765C2.5994 2.63084 2.62925 2.60099 2.66607 2.60099H10.666C10.7029 2.60099 10.7327 2.63084 10.7327 2.66765V10.6676C10.7327 10.7044 10.7029 10.7343 10.666 10.7343H2.66607C2.62925 10.7343 2.5994 10.7044 2.5994 10.6676V2.66765ZM14.5883 13.4214C14.5994 13.2854 14.5994 13.1241 14.5994 12.9545L14.5994 6.00137L13.3994 6.00162V13.3349C13.3994 13.3717 13.3695 13.4016 13.3327 13.4016H5.99943L5.99941 14.6013L12.9526 14.6013C13.1221 14.6013 13.2835 14.6014 13.4194 14.5903C13.5677 14.5781 13.7378 14.5499 13.9078 14.4633C14.1461 14.3418 14.3399 14.1481 14.4613 13.9097C14.5479 13.7397 14.5762 13.5697 14.5883 13.4214Z" fill="currentColor"/>
<path fill-rule="evenodd" clip-rule="evenodd" d="M9.16797 7.27092H4.16797V6.07092H9.16797V7.27092Z" fill="currentColor"/>
<path fill-rule="evenodd" clip-rule="evenodd" d="M6.06792 9.17029L6.06792 4.17029L7.26792 4.17029L7.26792 9.17029H6.06792Z" fill="currentColor"/>
</svg>
