<svg viewBox="0 0 16 16" fill="currentColor" xmlns="http://www.w3.org/2000/svg">
<path d="M5.75479 3.45774C6.83921 2.92168 8.07963 2.7913 9.25181 3.09016C10.279 3.35205 11.1944 3.92843 11.873 4.7331L10.6668 4.7331C10.3354 4.7331 10.0668 5.00173 10.0668 5.3331C10.0668 5.66447 10.3354 5.93309 10.6668 5.93309L13.3335 5.93309C13.6648 5.93309 13.9334 5.66446 13.9334 5.3331V2.66644C13.9334 2.33507 13.6648 2.06644 13.3335 2.06644C13.0021 2.06644 12.7335 2.33507 12.7335 2.66644V3.89295C11.9001 2.93242 10.7903 2.24403 9.54828 1.92736C8.09848 1.55772 6.56427 1.71899 5.22302 2.38201C3.88177 3.04503 2.822 4.16605 2.2353 5.5424C1.6486 6.91875 1.5737 8.45959 2.02413 9.88635C2.47457 11.3131 3.42061 12.5316 4.69122 13.3216C5.96184 14.1116 7.47318 14.4209 8.95199 14.1937C10.4308 13.9664 11.7795 13.2175 12.7543 12.0824C13.729 10.9473 14.2655 9.50097 14.2667 8.00479C14.267 7.67342 13.9985 7.40457 13.6672 7.40431C13.3358 7.40404 13.067 7.67245 13.0667 8.00382C13.0657 9.2135 12.632 10.3829 11.8439 11.3006C11.0558 12.2184 9.96534 12.8238 8.7697 13.0076C7.57406 13.1913 6.35213 12.9413 5.32483 12.3025C4.29752 11.6638 3.53264 10.6786 3.16846 9.52509C2.80428 8.37153 2.86484 7.12575 3.33919 6.01295C3.81354 4.90016 4.67038 3.9938 5.75479 3.45774Z" fill="currentColor"/>
</svg>
