<svg  viewBox="0 0 20 20" fill="currentColor" xmlns="http://www.w3.org/2000/svg">
<g clip-path="url(#clip0_65_1215)">
<path d="M10 2C14.4184 2 18 5.5816 18 10C18 14.4184 14.4184 18 10 18C5.5816 18 2 14.4184 2 10C2 5.5816 5.5816 2 10 2ZM10 5.2C9.78783 5.2 9.58434 5.28429 9.43431 5.43431C9.28429 5.58434 9.2 5.78783 9.2 6V10C9.20005 10.2122 9.28436 10.4156 9.4344 10.5656L11.8344 12.9656C11.9853 13.1113 12.1874 13.192 12.3971 13.1901C12.6069 13.1883 12.8075 13.1042 12.9559 12.9559C13.1042 12.8075 13.1883 12.6069 13.1901 12.3971C13.192 12.1874 13.1113 11.9853 12.9656 11.8344L10.8 9.6688V6C10.8 5.78783 10.7157 5.58434 10.5657 5.43431C10.4157 5.28429 10.2122 5.2 10 5.2Z" fill="currentColor"/>
</g>
<defs>
<clipPath id="clip0_65_1215">
<rect width="20" height="20" fill="white"/>
</clipPath>
</defs>
</svg>
