<svg  viewBox="0 0 24 24" fill="currentColor" xmlns="http://www.w3.org/2000/svg">
<path d="M11.0475 3.44701C10.6575 2.66751 9.8425 2.03701 8.8415 2.14851C7.946 2.24801 6.6165 2.58101 5.71 3.67301C4.7795 4.79451 4.4325 6.54351 5.147 9.16401C5.91 11.9595 7.043 14.7155 8.4515 16.939C9.8495 19.1465 11.5715 20.9135 13.547 21.591C15.294 22.19 16.63 21.94 17.6045 21.282C18.5445 20.6475 19.0605 19.693 19.3275 19.032C19.6265 18.292 19.4295 17.5215 19.0395 16.9535L17.601 14.8615C17.2832 14.3992 16.8257 14.0509 16.2955 13.8676C15.7654 13.6844 15.1904 13.6757 14.655 13.843L12.667 14.4645C12.6042 14.4859 12.5365 14.4884 12.4723 14.4718C12.408 14.4552 12.3501 14.4202 12.3055 14.371C11.4205 13.3345 10.429 11.889 10.1595 10.426C10.1509 10.3869 10.1567 10.3461 10.176 10.311C10.4685 9.81951 10.972 9.26251 11.4725 8.77501C12.321 7.94901 12.6425 6.63601 12.0825 5.51701L11.0475 3.44701Z" fill="currentColor"/>
</svg>
